<mxfile host="app.diagrams.net" agent="Mozilla/5.0 (Macintosh; Intel Mac OS X 10.15; rv:140.0) Gecko/20100101 Firefox/140.0" version="28.0.4">
  <diagram name="Page-1" id="JTPSuM5d48X0pgVmyWWO">
    <mxGraphModel dx="702" dy="417" grid="1" gridSize="10" guides="1" tooltips="1" connect="1" arrows="1" fold="1" page="1" pageScale="1" pageWidth="583" pageHeight="413" math="0" shadow="0">
      <root>
        <mxCell id="0" />
        <mxCell id="1" parent="0" />
        <mxCell id="eJ7qDa3MOtqZ219rTDIy-3" value="" style="edgeStyle=orthogonalEdgeStyle;rounded=0;orthogonalLoop=1;jettySize=auto;html=1;" parent="1" source="eJ7qDa3MOtqZ219rTDIy-1" target="eJ7qDa3MOtqZ219rTDIy-2" edge="1">
          <mxGeometry relative="1" as="geometry" />
        </mxCell>
        <mxCell id="eJ7qDa3MOtqZ219rTDIy-1" value="Poll Time" style="shape=step;perimeter=stepPerimeter;whiteSpace=wrap;html=1;fixedSize=1;" parent="1" vertex="1">
          <mxGeometry x="40" y="140" width="120" height="80" as="geometry" />
        </mxCell>
        <mxCell id="eJ7qDa3MOtqZ219rTDIy-4" style="edgeStyle=orthogonalEdgeStyle;rounded=0;orthogonalLoop=1;jettySize=auto;html=1;entryX=0;entryY=0.5;entryDx=0;entryDy=0;" parent="1" source="eJ7qDa3MOtqZ219rTDIy-2" target="eJ7qDa3MOtqZ219rTDIy-1" edge="1">
          <mxGeometry relative="1" as="geometry">
            <Array as="points">
              <mxPoint x="240" y="240" />
              <mxPoint x="20" y="240" />
              <mxPoint x="20" y="180" />
            </Array>
          </mxGeometry>
        </mxCell>
        <mxCell id="eJ7qDa3MOtqZ219rTDIy-5" value="No" style="edgeLabel;html=1;align=center;verticalAlign=middle;resizable=0;points=[];" parent="eJ7qDa3MOtqZ219rTDIy-4" vertex="1" connectable="0">
          <mxGeometry x="-0.2535" relative="1" as="geometry">
            <mxPoint as="offset" />
          </mxGeometry>
        </mxCell>
        <mxCell id="eJ7qDa3MOtqZ219rTDIy-2" value="Coffee Time?" style="rhombus;whiteSpace=wrap;html=1;" parent="1" vertex="1">
          <mxGeometry x="200" y="140" width="80" height="80" as="geometry" />
        </mxCell>
        <mxCell id="eJ7qDa3MOtqZ219rTDIy-6" value="Coffee Machine Enable" style="shape=step;perimeter=stepPerimeter;whiteSpace=wrap;html=1;fixedSize=1;" parent="1" vertex="1">
          <mxGeometry x="440" y="140" width="120" height="80" as="geometry" />
        </mxCell>
        <mxCell id="eJ7qDa3MOtqZ219rTDIy-9" style="edgeStyle=orthogonalEdgeStyle;rounded=0;orthogonalLoop=1;jettySize=auto;html=1;exitX=1;exitY=0;exitDx=0;exitDy=0;entryX=0;entryY=0.5;entryDx=0;entryDy=0;curved=1;" parent="1" source="eJ7qDa3MOtqZ219rTDIy-2" target="QDaHXukpP0iw9TdUdlRL-1" edge="1">
          <mxGeometry relative="1" as="geometry">
            <Array as="points">
              <mxPoint x="260" y="70" />
            </Array>
          </mxGeometry>
        </mxCell>
        <mxCell id="eJ7qDa3MOtqZ219rTDIy-12" value="Yes - 7AM" style="edgeLabel;html=1;align=center;verticalAlign=middle;resizable=0;points=[];" parent="eJ7qDa3MOtqZ219rTDIy-9" vertex="1" connectable="0">
          <mxGeometry x="-0.0174" y="1" relative="1" as="geometry">
            <mxPoint x="11" y="24" as="offset" />
          </mxGeometry>
        </mxCell>
        <mxCell id="eJ7qDa3MOtqZ219rTDIy-10" style="edgeStyle=orthogonalEdgeStyle;rounded=0;orthogonalLoop=1;jettySize=auto;html=1;exitX=1;exitY=1;exitDx=0;exitDy=0;entryX=0.083;entryY=0.754;entryDx=0;entryDy=0;entryPerimeter=0;" parent="1" source="eJ7qDa3MOtqZ219rTDIy-2" target="eJ7qDa3MOtqZ219rTDIy-6" edge="1">
          <mxGeometry relative="1" as="geometry" />
        </mxCell>
        <mxCell id="eJ7qDa3MOtqZ219rTDIy-11" value="Yes - 11AM" style="edgeLabel;html=1;align=center;verticalAlign=middle;resizable=0;points=[];" parent="eJ7qDa3MOtqZ219rTDIy-10" vertex="1" connectable="0">
          <mxGeometry x="-0.1125" y="2" relative="1" as="geometry">
            <mxPoint as="offset" />
          </mxGeometry>
        </mxCell>
        <mxCell id="eJ7qDa3MOtqZ219rTDIy-13" value="" style="rounded=1;whiteSpace=wrap;html=1;fillColor=none;" parent="1" vertex="1">
          <mxGeometry y="20" width="580" height="240" as="geometry" />
        </mxCell>
        <mxCell id="eJ7qDa3MOtqZ219rTDIy-14" value="&quot;There&quot; Coffee Machine Flow" style="text;html=1;align=center;verticalAlign=middle;whiteSpace=wrap;rounded=0;" parent="1" vertex="1">
          <mxGeometry y="30" width="190" height="30" as="geometry" />
        </mxCell>
        <mxCell id="QDaHXukpP0iw9TdUdlRL-2" style="edgeStyle=orthogonalEdgeStyle;rounded=0;orthogonalLoop=1;jettySize=auto;html=1;entryX=0.5;entryY=0;entryDx=0;entryDy=0;curved=1;" edge="1" parent="1" source="QDaHXukpP0iw9TdUdlRL-1" target="eJ7qDa3MOtqZ219rTDIy-6">
          <mxGeometry relative="1" as="geometry" />
        </mxCell>
        <mxCell id="QDaHXukpP0iw9TdUdlRL-1" value="Wakeup Alarm" style="shape=step;perimeter=stepPerimeter;whiteSpace=wrap;html=1;fixedSize=1;" vertex="1" parent="1">
          <mxGeometry x="300" y="30" width="120" height="80" as="geometry" />
        </mxCell>
      </root>
    </mxGraphModel>
  </diagram>
</mxfile>
